<?xml version="1.0" encoding="UTF-8" standalone="no"?>
<svg
   sodipodi:docname="code-annotation.svg"
   inkscape:version="1.1.2 (0a00cf5339, 2022-02-04)"
   id="svg912"
   version="1.1"
   viewBox="0 0 138.59074 135.31"
   height="135.31mm"
   width="138.59074mm"
   xmlns:inkscape="http://www.inkscape.org/namespaces/inkscape"
   xmlns:sodipodi="http://sodipodi.sourceforge.net/DTD/sodipodi-0.dtd"
   xmlns="http://www.w3.org/2000/svg"
   xmlns:svg="http://www.w3.org/2000/svg"
   xmlns:rdf="http://www.w3.org/1999/02/22-rdf-syntax-ns#"
   xmlns:cc="http://creativecommons.org/ns#"
   xmlns:dc="http://purl.org/dc/elements/1.1/">
  <defs
     id="defs906" />
  <sodipodi:namedview
     inkscape:window-maximized="1"
     inkscape:window-y="0"
     inkscape:window-x="0"
     inkscape:window-height="1016"
     inkscape:window-width="1846"
     fit-margin-bottom="10"
     fit-margin-right="10"
     fit-margin-left="10"
     fit-margin-top="10"
     lock-margins="true"
     units="mm"
     showgrid="false"
     inkscape:document-rotation="0"
     inkscape:current-layer="layer1"
     inkscape:document-units="mm"
     inkscape:cy="389.28571"
     inkscape:cx="310.71429"
     inkscape:zoom="0.7"
     inkscape:pageshadow="2"
     inkscape:pageopacity="0.0"
     borderopacity="1.0"
     bordercolor="#666666"
     pagecolor="#ffffff"
     id="base"
     inkscape:pagecheckerboard="0" />
  <metadata
     id="metadata909">
    <rdf:RDF>
      <cc:Work
         rdf:about="">
        <dc:format>image/svg+xml</dc:format>
        <dc:type
           rdf:resource="http://purl.org/dc/dcmitype/StillImage" />
        <dc:title />
      </cc:Work>
    </rdf:RDF>
  </metadata>
  <g
     transform="translate(-40.317725,-5.672381)"
     id="layer1"
     inkscape:groupmode="layer"
     inkscape:label="Calque 1">
    <g
       style="opacity:1"
       id="g1496">
      <path
         id="path1498"
         style="color:#000000;font-style:normal;font-variant:normal;font-weight:normal;font-stretch:normal;font-size:medium;line-height:normal;font-family:sans-serif;font-variant-ligatures:normal;font-variant-position:normal;font-variant-caps:normal;font-variant-numeric:normal;font-variant-alternates:normal;font-variant-east-asian:normal;font-feature-settings:normal;font-variation-settings:normal;text-indent:0;text-align:start;text-decoration:none;text-decoration-line:none;text-decoration-style:solid;text-decoration-color:#000000;letter-spacing:normal;word-spacing:normal;text-transform:none;writing-mode:lr-tb;direction:ltr;text-orientation:mixed;dominant-baseline:auto;baseline-shift:baseline;text-anchor:start;white-space:normal;shape-padding:0;shape-margin:0;inline-size:0;clip-rule:nonzero;display:inline;overflow:visible;visibility:visible;isolation:auto;mix-blend-mode:normal;color-interpolation:sRGB;color-interpolation-filters:linearRGB;solid-color:#000000;solid-opacity:1;vector-effect:none;fill:#55ffff;fill-opacity:0;fill-rule:nonzero;stroke:none;stroke-width:37.7953;stroke-linecap:butt;stroke-linejoin:round;stroke-miterlimit:4;stroke-dasharray:none;stroke-dashoffset:0;stroke-opacity:1;color-rendering:auto;image-rendering:auto;shape-rendering:auto;text-rendering:auto;enable-background:accumulate;stop-color:#000000;stop-opacity:1"
         transform="matrix(0.26458333,0,0,0.26458333,40.317725,5.672381)"
         d="M 56.693359,56.693359 V 454.71484 H 351.79688 v -37.91211 c -0.13349,-1.3e-4 -0.2669,2.4e-4 -0.4004,0 -2.29082,-0.002 -4.58222,-1.8e-4 -6.87304,0 -3.74509,-3e-5 -7.49125,-7e-5 -11.23633,0 -2.76889,4e-5 -5.53775,0 -8.30664,0 h -5.91992 -5.64844 -5.78906 -7.5625 c -4.45504,0.0417 -6.33347,0.009 -8.87696,-1.46484 -0.92636,0.0652 -1.86283,0.0936 -2.85937,0.0488 -2.31943,-0.0666 -4.85942,-0.50111 -7.42188,-1.01367 -3.27836,2.77175 -7.35467,5.9788 -11.54296,4.72461 -1.90085,-0.56916 -3.65329,-1.54981 -5.47852,-2.32813 -0.0453,-0.0196 0.0922,0.0357 0.13867,0.0508 0.97614,0.28899 1.9516,0.57806 2.92774,0.86719 -0.84575,-0.47406 -1.70499,-0.92501 -2.56055,-1.38281 -0.002,0.003 -0.004,0.005 -0.006,0.008 -0.35315,0.46873 -0.85934,0.11586 -1.38477,-0.39648 -0.15276,0.0723 -0.30741,0.13391 -0.46679,0.16992 -7.65806,1.72999 -13.51713,2.86302 -18.16211,1.70117 h -0.002 c -0.39386,-0.0173 -0.7717,-0.0338 -1.18359,-0.0469 -2.96686,-0.32277 -0.83639,-0.11623 -0.39844,-0.0859 0.47517,0.0331 0.92876,0.0545 1.36133,0.0703 -3.07788,-0.82634 -5.61912,-2.68586 -7.79492,-6.09375 -0.56822,-0.89 1.39787,1.58233 2.09766,2.37305 5.89125,2.6294 7.08638,4.12947 12.67968,2.35937 2.44489,-2.37234 -1.84468,-7.48269 -6.66406,-12.83203 -0.21672,-0.0666 -0.43417,-0.13115 -0.65039,-0.19922 -1.81917,-0.26569 -3.64358,-0.49786 -5.44531,-0.86133 -1.05434,-0.21271 -2.06507,-0.60307 -3.09766,-0.90429 0.0553,0.10091 0.15203,0.18859 0.16602,0.30273 0.39842,3.23572 -3.94714,0.67286 -7.95899,-2.36719 -2.3155,-0.0951 -4.33327,-0.70853 -6.9414,-1.70312 -3.61796,-0.84946 -7.1563,-3.01741 -9.73047,-4.47461 -0.46002,-0.26041 -1.54122,-1.62901 -2.47461,-2.8418 -1.15332,-0.68006 -2.29832,-1.37501 -3.44727,-2.0625 -3.69066,-2.74979 -5.7074,-6.16716 -7.74219,-10.12304 -0.31485,-0.19585 -0.62966,-0.49547 -0.94531,-0.7461 -0.77673,0.42713 -1.74432,0.45127 -2.61133,0.6875 -6.47418,1.62721 -19.70324,3.99828 -23.5371,-3.49805 -0.81561,-0.0828 -1.62764,-0.20192 -2.42579,-0.41601 -3.2976,-0.88451 2.68793,-10.59487 -0.18945,-10.24024 0.58709,-4.23787 1.18784,-8.46867 1.84961,-12.68554 -1.12253,-0.4116 -2.11844,-1.03154 -2.86133,-1.98047 -1.18846,2.62395 -1.62588,4.72211 -0.33984,-0.47461 -0.0646,-0.1033 -0.12424,-0.21233 -0.1836,-0.32227 -0.45123,0.70594 -0.89385,1.57645 -1.28515,2.50196 -0.12276,1.68822 0.0925,3.40542 0.084,5.10351 -2.09814,1.64561 -1.4177,-1.94857 -0.084,-5.10351 0.0245,-0.33765 0.0587,-0.67489 0.11523,-1.00977 0.12554,-0.74352 0.45644,-1.43931 0.87891,-2.10937 -0.36199,-0.89525 -0.5707,-1.97846 -0.57813,-3.29493 0.0281,-0.6477 -0.18124,-2.41876 0.16407,-2.94921 -0.15077,-0.58929 -0.29189,-1.18012 -0.39649,-1.77735 -0.0807,-0.0127 -0.16024,-0.0469 -0.24219,-0.043 -0.45917,0.0221 -0.89694,0.19909 -1.3457,0.29883 -4.97312,0.66216 -9.64518,0.59617 -13.42578,-3.35156 -0.5597,-0.45359 -2.41744,-1.93581 -2.61133,-2.25 -2.06199,-3.34147 -2.54532,-4.59123 -2.4082,-7.79492 0.0373,-0.33707 0.0386,-0.32678 0.0644,-0.56446 -0.38234,-0.7389 -0.72039,-1.49249 -0.88476,-2.30468 -0.2619,-1.29407 0.33929,-2.63953 0.78906,-3.88086 0.31745,-0.87616 0.8382,-1.66417 1.36133,-2.44141 -0.89692,-2.08498 -0.86808,-4.09229 -0.26563,-6.03711 -0.75754,-2.25512 -0.72472,-4.55251 0.15821,-7.06836 -1.78199,3.10261 2.35753,-11.08806 2.79101,-11.70117 2.16879,-3.06745 5.06375,-5.55091 7.5957,-8.32617 2.00341,-1.34355 3.95137,-2.77356 6.00977,-4.03125 2.35722,-2.4297 5.79791,-2.7474 8.56445,-4.36328 0.62144,-0.36298 1.42205,-0.9397 2.14258,-1.41993 0.92424,-0.80716 1.89801,-1.51226 3.01172,-2.07617 1.27707,-0.93266 2.58007,-1.89701 3.88867,-2.90429 2.39404,-3.17249 5.83819,-8.75761 5.85547,-8.75782 2.20118,-0.026 3.99112,-0.17528 5.75781,-0.31054 2.49636,-1.90438 4.5747,-3.565 6.65821,-5.29883 -0.74633,-1.63777 -1.49172,-3.27595 -2.16407,-4.94531 -0.6303,-1.56522 0.0263,-1.17572 -0.0312,-2.17774 -0.0964,-1.67842 -0.6475,-3.36939 -0.38086,-5.0293 1.19309,-7.42746 1.65396,-7.14688 5.26758,-11.77343 10.63906,-4.6898 8.66075,-5.30859 16.01758,-5.14649 1.54082,4.6e-4 3.08028,-2e-4 4.62109,-0.002 1.76175,-6e-5 3.52344,8e-5 5.28516,0.002 0.0372,-0.93208 0.0957,-1.86537 0.0957,-2.79492 h 0.004 c 0,-15.55635 7.8577,-23.33594 15.71484,-23.33594 4.18135,0 8.33819,2.24876 11.33399,6.65625 0.24365,-0.0386 0.48409,-0.1097 0.73047,-0.11914 0.93481,-0.0356 1.49365,-0.0386 1.84765,-0.0195 1.06201,0.0574 0.27747,0.30724 2.24414,0.42578 2.4389,0.14699 4.93718,0.0199 7.37891,-0.0195 3.42943,-0.13005 6.86188,-0.0521 10.29297,-0.0449 4.38823,-0.003 8.77778,-0.007 13.16601,-0.006 2.10646,0.002 4.21191,5e-5 6.31836,0 6.3976,9e-5 12.79576,5e-5 19.19336,0 4.23948,-0.33134 8.21943,0.43857 12.21289,1.88086 8.46793,-0.53028 14.67504,2.49181 21.82813,6.54297 0.72575,0.0985 1.66637,0.3792 2.24805,0.39258 0.10378,0.002 0.20861,0.007 0.3125,0.01 v -9.93359 -46.64453 L 252.78906,56.693359 Z M 351.79688,263.48633 c -3.85109,2.47147 -9.26611,4.07422 -16.2754,4.07422 -7.84742,0 -7.10132,0.34021 -16.50781,-1.78321 -2.15605,-0.4867 -4.15922,-1.55124 -6.32226,-2.00586 -0.33597,-0.0706 -1.00108,-0.0947 -1.77539,-0.10351 -0.0928,0.008 -0.17011,-2.8e-4 -0.25391,-0.002 -2.48286,-0.0106 -5.37025,0.15116 -8.0293,0.32031 -3.71035,3.51764 -7.81227,6.45657 -11.89453,9.76172 0.0882,0.0881 0.1926,0.16168 0.26758,0.26172 1.60541,2.14165 3.13004,4.3425 4.69531,6.51367 2.85914,5.17764 6.61192,9.71252 9.45313,14.90234 0.57648,1.05302 1.26853,2.07975 1.56836,3.24219 0.71822,2.78447 0.97371,5.66791 1.46093,8.50195 -2.67617,4.32504 -4.19228,7.14935 -4.97265,8.93555 0.72204,10e-4 1.44397,-0.003 2.16601,-0.004 0.40589,-0.63469 0.76137,-1.28534 0.92383,-1.87695 0.88386,-3.21804 0.58842,-4.69256 0.86524,0.45312 0.0426,0.5189 0.0382,0.94259 0.0625,1.42188 0.88869,-0.003 1.77738,-2.9e-4 2.66601,-0.006 26.57124,-0.16155 30.56607,22.73048 11.79102,29.5332 -2.41552,3.19119 -4.85536,6.37446 -6.51367,9.06836 12.20836,-0.0465 24.41658,-0.0536 36.625,-0.0293 z m -110.50586,19.24805 c -0.78069,3.7392 -3.32709,7.28227 -7.67969,9.75781 -0.25354,3.77304 -1.59284,7.44686 -3.44531,10.7539 -1.41862,3.37393 -3.39886,5.7817 -5.76758,8.07032 1.89349,2.76868 3.51141,5.78536 5.4414,8.49609 3.36319,4.33479 6.72611,8.4952 9.34766,13.3457 2.94974,5.45774 0.34524,2.03806 2.69727,4.92383 0.39173,0.51901 0.7274,1.08571 1.17578,1.55664 0.40442,0.42478 1.56874,1.18045 2.09179,1.60156 1.92785,1.55211 3.63147,3.12264 5.41993,4.84571 0.46427,0.49672 0.97656,0.95395 1.39453,1.49023 1.09093,1.39975 2.12349,2.84486 3.12695,4.3086 0.29411,0.429 0.55145,0.88139 0.8125,1.33203 1.03181,0.42072 1.91087,0.82229 2.75,1.21679 0.54425,0.0369 1.09006,0.0708 1.63086,0.13868 0.89692,0.1126 1.69886,0.71597 2.60156,0.76367 1.63581,0.0864 3.26296,-0.3207 4.90039,-0.36719 6.08444,-0.17267 12.1722,-0.12164 18.25977,-0.11133 -2.54182,-1.04373 -4.94831,-2.40682 -7.08203,-4.08594 -1.68057,-1.43829 -3.2833,-2.92261 -4.88086,-4.41601 -1.25324,0.0631 -2.47771,0.0906 -3.27539,-0.0234 -26.04222,-3.72418 3.58224,-0.13167 -10.00977,-2.33203 -1.7142,-0.75174 -3.51263,-1.33367 -5.14258,-2.25391 -6.87877,-3.88361 -11.11935,-11.72554 -13.41406,-18.95703 -0.45251,-2.2897 -0.91697,-4.57708 -1.35742,-6.86914 -0.16158,-0.84084 0,-2.93531 0,-3.60351 v -13.82813 c 0,-6.16404 1.24608,-11.08672 3.22461,-14.80859 -0.92068,-0.31712 -2.12097,-0.70086 -2.82031,-0.94531 z m -64.65625,15.95507 c -0.22763,0.24924 -0.43558,0.51718 -0.67969,0.75 -0.0839,0.45089 -0.16894,0.62342 -0.29688,1.0918 0.15617,0.0659 0.32493,0.13046 0.49805,0.19531 0.16432,-0.28744 0.32047,-0.57957 0.48437,-0.86718 -0.002,-0.39896 -0.005,-0.83145 -0.006,-1.16993 z m 112.41015,15.6836 c 0.003,0.0129 0.007,0.0261 0.01,0.0391 0.63642,0.15428 1.27368,0.31012 1.91601,0.43555 0.67402,0.13161 -1.09062,-0.27357 -1.92578,-0.47461 z m -141.66211,5.49609 c -1.03981,3.02862 -1.75014,5.91614 3.38672,2.99805 -0.50947,-0.16575 -0.98303,-0.39094 -1.37305,-0.75781 -0.80426,-0.75669 -1.46913,-1.50331 -2.01367,-2.24024 z m 11.89453,5.57422 c -0.0162,0.24888 -0.027,0.48007 -0.0527,0.7168 0.052,0.0427 0.1187,0.0989 0.16406,0.13672 0.21005,-0.0447 0.64888,-0.0836 1.11914,-0.12891 -0.002,-0.0129 -0.002,-0.0262 -0.004,-0.0391 -0.38108,-0.21869 -0.79412,-0.44836 -1.22657,-0.68555 z m -13.95117,1.77734 c 0.0892,0.28007 0.19785,0.53524 0.35156,0.70703 0.0435,0.0486 0.0982,0.0977 0.14454,0.14649 -0.16596,-0.28453 -0.3317,-0.56847 -0.4961,-0.85352 z m 106.00195,26.5625 c -0.30721,0.005 -0.31061,0.0392 0.17188,0.12305 1.6803,0.29197 3.38753,0.34832 5.0957,0.41406 -0.0532,-0.0768 -0.0975,-0.15998 -0.14843,-0.23828 -0.0523,-0.029 -0.071,-0.0404 -0.1211,-0.0684 -1.7153,-0.0817 -4.2226,-0.24275 -4.99805,-0.23047 z m 5.11915,0.29883 c 0.18975,0.10536 0.21854,0.13241 0.4375,0.25195 0.43659,0.0173 0.87277,0.0358 1.30859,0.0605 -0.3083,-0.12417 -0.39539,-0.15256 -0.82031,-0.32812 -0.21539,-0.006 -0.67285,-0.0351 -0.9668,-0.0488 0.0137,0.0214 0.0271,0.0431 0.041,0.0644 z m 0.4375,0.25195 c -0.0964,-0.004 -0.19263,-0.01 -0.28907,-0.0137 0.0258,0.0372 0.0459,0.0784 0.0723,0.11524 0.12513,0.17472 0.67727,0.47872 0.57617,0.28906 -0.0762,-0.14302 -0.21234,-0.24462 -0.31836,-0.36719 -0.0207,-0.0113 -0.0205,-0.0122 -0.041,-0.0234 z M 181.5,374.22461 c -3.44509,0.10349 -6.9776,0.77088 -10.40234,0.61133 9.73088,1.44596 6.87184,3.31767 10.40234,-0.61133 z m 37.00391,13.57227 c 0.29285,1.11656 0.82762,2.52174 1.43164,2.96874 0.0291,0.0215 0.0607,0.0392 0.0898,0.0605 -0.27471,-0.92322 -0.53511,-1.85948 -0.85742,-2.75781 -0.22304,-0.0862 -0.44194,-0.18301 -0.66406,-0.27148 z m -11.54493,0.97656 c -0.0601,0.0382 0.32644,0.48664 0.49414,0.63281 0.0386,0.0337 0.0802,0.0643 0.11915,0.0977 -0.0419,-0.055 -0.11575,-0.14666 -0.1543,-0.19727 -0.13514,-0.17408 -0.20459,-0.43046 -0.4043,-0.52344 -0.0288,-0.0134 -0.0461,-0.0142 -0.0547,-0.01 z m 7.99414,5.81836 c -0.10518,-0.0765 0.0444,0.0375 0.59571,0.46484 0.0117,-0.001 0.0237,-0.003 0.0351,-0.004 -0.25913,-0.18896 -0.55955,-0.40911 -0.63086,-0.46093 z m 43.49805,16.80859 c -1.53404,1.16561 -2.83612,2.65994 -4.33008,3.875 0.15874,-0.0628 0.30034,-0.1153 0.46485,-0.18164 1.12739,-0.45463 3.09266,-2.15429 4.24218,-3.32422 -0.12725,-0.12136 -0.25006,-0.24737 -0.37695,-0.36914 z m 37.07617,3.32227 c -0.57643,0.11746 -1.13158,0.21837 -1.68164,0.30859 0.0203,-0.002 0.0465,0.002 0.0664,0 0.54505,-0.0605 2.15259,-0.4182 1.61523,-0.30859 z" />
      <path
         id="path1500"
         style="color:#000000;font-style:normal;font-variant:normal;font-weight:normal;font-stretch:normal;font-size:medium;line-height:normal;font-family:sans-serif;font-variant-ligatures:normal;font-variant-position:normal;font-variant-caps:normal;font-variant-numeric:normal;font-variant-alternates:normal;font-variant-east-asian:normal;font-feature-settings:normal;font-variation-settings:normal;text-indent:0;text-align:start;text-decoration:none;text-decoration-line:none;text-decoration-style:solid;text-decoration-color:#000000;letter-spacing:normal;word-spacing:normal;text-transform:none;writing-mode:lr-tb;direction:ltr;text-orientation:mixed;dominant-baseline:auto;baseline-shift:baseline;text-anchor:start;white-space:normal;shape-padding:0;shape-margin:0;inline-size:0;clip-rule:nonzero;display:inline;overflow:visible;visibility:visible;isolation:auto;mix-blend-mode:normal;color-interpolation:sRGB;color-interpolation-filters:linearRGB;solid-color:#000000;solid-opacity:1;vector-effect:none;fill:#000000;fill-opacity:1;fill-rule:nonzero;stroke:none;stroke-width:37.7953;stroke-linecap:butt;stroke-linejoin:round;stroke-miterlimit:4;stroke-dasharray:none;stroke-dashoffset:0;stroke-opacity:1;color-rendering:auto;image-rendering:auto;shape-rendering:auto;text-rendering:auto;enable-background:accumulate;stop-color:#000000;stop-opacity:1"
         transform="matrix(0.26458333,0,0,0.26458333,40.317725,5.672381)"
         d="M 56.695312,37.792969 A 18.899528,18.899528 0 0 0 37.796875,56.691406 V 454.71484 a 18.899528,18.899528 0 0 0 18.898437,18.89844 H 351.79297 a 18.899528,18.899528 0 0 0 18.89844,-18.89844 v -37.98242 c -0.26695,0.007 -0.53392,0.0124 -0.80079,0.0176 -4.03133,0.1406 -8.0684,0.0544 -12.10156,0.0469 -2.13139,-10e-6 -4.26119,0.01 -6.39258,0.006 -2.29082,-0.002 -4.58222,-1.8e-4 -6.87304,0 -3.74509,-3e-5 -7.49125,-7e-5 -11.23633,0 -0.13021,10e-6 -0.26042,0 -0.39063,0 v 19.01563 H 75.59375 V 75.587891 h 158.61328 l 1.10742,86.212889 a 18.899528,18.899528 0 0 0 18.94922,18.6543 l 78.63281,-0.22461 v 25.68555 h 37.79493 v -46.63868 a 18.899528,18.899528 0 0 0 -5.30079,-13.125 L 266.38477,43.566406 A 18.899528,18.899528 0 0 0 252.78711,37.792969 Z M 272.375,104.19727 l 36.9668,38.30664 -36.47461,0.10547 z m 149.4375,139.34375 c -0.0157,7e-4 -0.0312,0.003 -0.0469,0.004 -1.07476,2.02873 -1.8711,3.62822 -0.75976,1.63672 0.29672,-0.53174 0.5472,-1.08854 0.80664,-1.64062 z m 26.4043,35.41015 v 0.19922 c 0.44898,0.33403 1.08303,0.54527 1.52343,0.88867 0.34534,0.26925 -0.69065,-0.53715 -1.05273,-0.7832 -0.20443,-0.13887 -0.32565,-0.21213 -0.4707,-0.30469 z m -271.58203,19.66602 c -0.23878,0.26312 -0.42276,0.57721 -0.67969,0.82226 -0.0839,0.45089 -0.16894,0.62342 -0.29688,1.0918 0.17152,0.0724 0.35509,0.14378 0.54688,0.21484 0.14703,-0.26521 0.28921,-0.53324 0.43554,-0.79882 -0.003,-0.46072 -0.006,-0.9479 -0.006,-1.33008 z m 273.31835,91.16992 c -0.0595,0.0403 -0.12004,0.079 -0.17968,0.11914 0.0731,-0.009 0.14146,-0.0105 0.21875,-0.0254 -0.012,-0.0317 -0.027,-0.0621 -0.0391,-0.0937 z m -211.54687,12.68945 a 18.899528,18.899528 0 0 0 6.51172,1.5586 c -0.15026,-0.16763 -0.30356,-0.33573 -0.45508,-0.50391 -0.21665,-0.0668 -0.43417,-0.13115 -0.65039,-0.19922 -1.80614,-0.26379 -3.61711,-0.49646 -5.40625,-0.85547 z" />
    </g>
    <g
       style="opacity:1"
       id="g1506">
      <path
         id="path1508"
         style="color:#000000;font-style:normal;font-variant:normal;font-weight:normal;font-stretch:normal;font-size:medium;line-height:normal;font-family:sans-serif;font-variant-ligatures:normal;font-variant-position:normal;font-variant-caps:normal;font-variant-numeric:normal;font-variant-alternates:normal;font-variant-east-asian:normal;font-feature-settings:normal;font-variation-settings:normal;text-indent:0;text-align:start;text-decoration:none;text-decoration-line:none;text-decoration-style:solid;text-decoration-color:#000000;letter-spacing:normal;word-spacing:normal;text-transform:none;writing-mode:lr-tb;direction:ltr;text-orientation:mixed;dominant-baseline:auto;baseline-shift:baseline;text-anchor:start;white-space:normal;shape-padding:0;shape-margin:0;inline-size:0;clip-rule:nonzero;display:inline;overflow:visible;visibility:visible;isolation:auto;mix-blend-mode:normal;color-interpolation:sRGB;color-interpolation-filters:linearRGB;solid-color:#000000;solid-opacity:1;vector-effect:none;fill:#ff00ff;fill-opacity:0;fill-rule:nonzero;stroke:none;stroke-width:37.7953;stroke-linecap:butt;stroke-linejoin:round;stroke-miterlimit:4;stroke-dasharray:none;stroke-dashoffset:0;stroke-opacity:1;color-rendering:auto;image-rendering:auto;shape-rendering:auto;text-rendering:auto;enable-background:accumulate;stop-color:#000000;stop-opacity:1"
         transform="matrix(0.26458333,0,0,0.26458333,40.317725,5.672381)"
         d="m 421.8125,243.54102 c -0.0157,7e-4 -0.0312,0.003 -0.0469,0.004 -1.07477,2.02873 -1.8711,3.62822 -0.75976,1.63672 0.29672,-0.53174 0.5472,-1.08854 0.80664,-1.64062 z m -64.26953,13.75586 c -2.80273,5.67101 -10.13238,10.26367 -22.02149,10.26367 -7.84742,0 -7.10132,0.34021 -16.50781,-1.78321 -2.15605,-0.4867 -4.15922,-1.55124 -6.32226,-2.00586 -0.33111,-0.0696 -0.98202,-0.0941 -1.74024,-0.10351 -0.10687,0.0105 -0.19379,-7e-5 -0.28906,-0.002 -2.47382,-0.0106 -5.34687,0.15138 -8.00586,0.32031 -3.71396,3.52356 -7.83064,6.45246 -11.91797,9.76172 0.0882,0.0881 0.1926,0.16168 0.26758,0.26172 1.60541,2.14165 3.13004,4.3425 4.69531,6.51367 2.85914,5.17764 6.61192,9.71252 9.45313,14.90234 0.57648,1.05302 1.26853,2.07975 1.56836,3.24219 0.71822,2.78447 0.97371,5.66791 1.46093,8.50195 -2.67617,4.32504 -4.19228,7.14935 -4.97265,8.93555 0.72204,10e-4 1.44397,-0.003 2.16601,-0.004 0.40589,-0.63469 0.76137,-1.28534 0.92383,-1.87695 0.88386,-3.21804 0.58842,-4.69256 0.86524,0.45312 0.0426,0.5189 0.0382,0.94259 0.0625,1.42188 0.88869,-0.003 1.77738,-1.5e-4 2.66601,-0.006 26.57043,-0.16155 30.56606,22.7297 11.79297,29.5332 -2.41878,3.19554 -4.86276,6.38173 -6.52148,9.07813 14.71474,-0.0587 29.43019,-0.0616 44.14453,-0.0312 4.08992,0.008 8.1885,-0.23662 12.26953,0.0332 4.27604,0.28271 8.50269,1.08107 12.7539,1.62109 1.8649,0.5357 3.72755,1.07631 5.59375,1.60743 0.49651,-0.30214 2.28879,0.17718 3.14649,0.0977 1.32427,-0.12317 2.64517,-0.27548 3.97266,-0.35742 1.85311,-0.11437 3.7113,-0.15329 5.5664,-0.23047 5.82554,0.12718 11.63506,0.2282 17.46484,0.19531 7.79793,-0.0623 15.59636,-0.0299 23.39454,-0.0215 v -3.39844 -11.73437 -7.45703 -4.71875 -15.66602 c 0,-2.92553 -4e-5,-5.85181 0,-8.77734 7e-5,-4.96281 5.3e-4,-9.92587 0,-14.88867 0,-2.92019 0.004,-4.50096 0,-6.7168 -0.002,-2.55812 -0.007,-5.11566 -0.002,-7.67383 -0.55435,-0.22238 -1.07727,-0.4287 -1.91797,-0.78711 -2.58939,-1.66293 -5.26651,-3.19523 -7.76757,-4.98828 -0.83033,-0.59525 -1.4587,-1.4325 -2.1875,-2.14844 0.0446,-0.23452 0.32449,-0.55825 0.13476,-0.70312 -0.87356,-0.66692 -2.25195,-0.61174 -2.95898,-1.45313 -4.60375,-5.47842 -6.86129,-7.5812 -7.98828,-9.14843 h -1.95118 c -5.08588,-4.1e-4 -10.17192,-0.004 -15.25781,0.002 -5.83052,0.007 -11.66162,-0.0296 -17.49219,-0.0137 -9.51344,0.0245 -19.02861,0.11583 -28.54101,-0.0508 z m 90.12695,0.7246 c -0.0464,-0.0611 -0.58698,0.71192 -1.86133,2.44532 -0.15779,0.30263 -0.25622,0.49672 -0.39257,0.75781 0.37917,-0.11908 0.70625,-0.22405 1.02343,-0.32617 0.76553,-1.7779 1.27943,-2.81245 1.23047,-2.87696 z m -1.29297,3.02344 c -0.33917,0.12527 -0.68724,0.24383 -1.04883,0.35156 -1.27036,2.43896 -1.57468,3.30494 -1.08398,5.23047 0.78337,-2.28542 1.52763,-4.16985 2.13281,-5.58203 z m 1.40821,17.625 c 0.32162,0.67506 1.33657,0.88686 1.95507,1.36914 0.34534,0.26925 -0.69065,-0.53715 -1.05273,-0.7832 -0.39226,-0.26647 -0.61137,-0.39719 -0.90234,-0.58594 z m -206.49414,4.06446 c -0.78069,3.7392 -3.32709,7.28227 -7.67969,9.75781 -0.25354,3.77304 -1.59284,7.44686 -3.44531,10.7539 -1.41862,3.37393 -3.39886,5.7817 -5.76758,8.07032 1.89349,2.76868 3.51141,5.78536 5.4414,8.49609 3.36319,4.33479 6.72611,8.4952 9.34766,13.3457 2.94974,5.45774 0.34524,2.03806 2.69727,4.92383 0.39173,0.51901 0.7274,1.08571 1.17578,1.55664 0.40442,0.42478 1.56874,1.18045 2.09179,1.60156 1.92785,1.55211 3.63147,3.12264 5.41993,4.84571 0.46427,0.49672 0.97656,0.95395 1.39453,1.49023 1.09093,1.39975 2.12349,2.84486 3.12695,4.3086 0.29411,0.429 0.55145,0.88139 0.8125,1.33203 1.03181,0.42072 1.91087,0.82229 2.75,1.21679 0.54425,0.0369 1.09006,0.0708 1.63086,0.13868 0.89692,0.1126 1.69886,0.71597 2.60156,0.76367 1.63581,0.0864 3.26296,-0.3207 4.90039,-0.36719 6.08444,-0.17267 12.1722,-0.12164 18.25977,-0.11133 -2.54182,-1.04373 -4.94831,-2.40682 -7.08203,-4.08594 -1.68231,-1.43979 -3.28836,-2.92277 -4.88868,-4.41601 -1.25043,0.0628 -2.47165,0.0904 -3.26757,-0.0234 -26.04222,-3.72418 3.58224,-0.13167 -10.00977,-2.33203 -1.7142,-0.75174 -3.51263,-1.33367 -5.14258,-2.25391 -6.87877,-3.88361 -11.11935,-11.72554 -13.41406,-18.95703 -0.45251,-2.2897 -0.91697,-4.57708 -1.35742,-6.86914 -0.16158,-0.84084 0,-2.93531 0,-3.60351 v -13.82813 c 0,-6.16404 1.24608,-11.08672 3.22461,-14.80859 -0.92068,-0.31712 -2.12097,-0.70087 -2.82031,-0.94531 z m 47.7539,31.63867 c 0.003,0.0129 0.007,0.0261 0.01,0.0391 0.63642,0.15428 1.27368,0.31012 1.91601,0.43555 0.67402,0.13161 -1.09062,-0.27357 -1.92578,-0.47461 z m -37.7168,39.41015 c -0.30721,0.005 -0.31061,0.0392 0.17188,0.12305 1.6803,0.29197 3.38753,0.34832 5.0957,0.41406 -0.0532,-0.0768 -0.0975,-0.15998 -0.14843,-0.23828 -0.0523,-0.029 -0.071,-0.0404 -0.1211,-0.0684 -1.7153,-0.0817 -4.2226,-0.24275 -4.99805,-0.23047 z m 5.11915,0.29883 c 0.18975,0.10536 0.21854,0.13241 0.4375,0.25195 0.43659,0.0173 0.87277,0.0358 1.30859,0.0605 -0.3083,-0.12417 -0.39539,-0.15256 -0.82031,-0.32812 -0.21539,-0.006 -0.67285,-0.0351 -0.9668,-0.0488 0.0137,0.0214 0.0271,0.0431 0.041,0.0644 z m 0.4375,0.25195 c -0.0964,-0.004 -0.19263,-0.01 -0.28907,-0.0137 0.0258,0.0372 0.0459,0.0784 0.0723,0.11524 0.12513,0.17472 0.67727,0.47872 0.57617,0.28906 -0.0762,-0.14302 -0.21234,-0.24462 -0.31836,-0.36719 -0.0207,-0.0113 -0.0205,-0.0122 -0.041,-0.0234 z" />
    </g>
    <text
       xml:space="preserve"
       style="font-style:normal;font-weight:normal;font-size:50.8px;line-height:1.25;font-family:sans-serif;white-space:pre;inline-size:35.6902;fill:#000000;fill-opacity:1;stroke:none;stroke-width:0.264583"
       x="81.106674"
       y="62.135529"
       id="text4675"
       transform="matrix(1.6120771,0,0,1.8948506,-65.163941,-1.0833778)"><tspan
         x="81.106674"
         y="62.135529"
         id="tspan13789">A</tspan></text>
  </g>
</svg>
