<svg xmlns="http://www.w3.org/2000/svg" version="1.0" viewBox="0 0 1024 1024"><path d="M371 194.3c-19.3 5.8-33.3 17.3-41.4 33.9-4.5 9.2-5.9 14.5-7.1 26.9-.6 5.5-.8 5.7-3.8 6.3-1.8.3-10.2.5-18.7.5-18.4-.2-24.6.9-35.7 6.2-15.8 7.6-27 22.4-29.3 38.9-.6 4.1-1 13.6-.9 21l.1 13.5-11.9.6c-10.7.5-12.6.9-18.8 3.8-8.1 3.7-13.2 8.8-17.1 16.8l-2.9 5.8v135l2.9 5.9c5.4 11.1 14.8 17.8 27.3 19.6 3.7.5 19.5 1 35 1 28 0 28.2 0 29.7 2.2 2.1 2.9 2.4 31.2.4 32.5-.7.4-12.3 1-25.8 1.3l-24.5.5-6.5 3.1c-8.2 3.9-15.8 11.2-19.6 18.9l-2.9 6v74l3.4 6.8c5.6 11.4 16 20 30.4 25 2 .7 19 1.3 45.7 1.6l42.5.6.5 42c.5 40.2.6 42.2 2.8 47.9 6.4 17.2 19.3 30 36 35.8l6.7 2.3h294l6.7-2.3c8.2-2.9 16.7-8.3 23.2-14.8 8.3-8.2 11.7-14.7 16.2-30.2.2-.8 2.6-1.2 7.3-1.2 17.6 0 33.4-6.1 46.3-18 15.7-14.5 22.7-31.8 22.8-56.3V703h10.3c12.8 0 22.6-1.4 28.6-4.1 6.4-2.8 13.4-10 16.8-17.3l2.8-6.1.3-65.6c.3-64.6.3-65.8-1.8-72-3.9-11.4-11.6-19.9-23.2-25.6-8.8-4.3-15.4-5.3-35.4-5.3-13.9 0-17.4-.3-18.4-1.5-1.3-1.6-1.1-20.8.3-22.2.5-.4 10.4-1 22-1.4 18.7-.4 21.9-.8 26.7-2.7 11.6-4.6 24.2-18.1 27.5-29.5 1.1-4.1 1.5-13.2 1.7-42.7.3-34.2.1-38-1.5-42.8-2.9-8.2-8.5-14.5-16.4-18.4l-6.8-3.3-18.2-.3-18.3-.4v-17.6c0-11.4-.5-20.1-1.4-24.3-4.2-19.8-19.1-33.8-39.6-37.5-4.3-.8-15-1.3-25.1-1.4h-17.6l-.6-10.8c-.9-17.1-5.3-27.1-17.7-39.2-8.8-8.7-18.1-14.1-29.6-17-7.5-1.9-11.2-2-139.3-1.9H378.5l-7.5 2.2zm271.2 21.8c11.6 2.4 22.8 11.1 27.8 21.4 1.5 3.2 2.3 7.2 2.7 14l.6 9.5H536.4c-151.5 0-143.9-.3-155.9 6.5-8.1 4.5-15.9 12.5-19.5 19.9-3.6 7.2-6.4 19.7-5.4 24 1.7 7.7 8 11.7 14.9 9.4 5.3-1.8 7.3-5.1 8.4-13.5 1.3-10.6 5.8-16.5 15.9-21.1 3.4-1.6 16-1.7 170.2-1.9 182.4-.3 173.7-.6 182.5 5.5 2.2 1.5 5.1 4.8 6.5 7.2 2.4 4.3 2.5 5.3 2.8 24.7l.3 20.3H345.9l.3-48.3.3-48.3 3.8-7.7c5.2-10.5 11.8-16 25.2-20.8 4.7-1.7 12.1-1.8 133.2-1.9 90.1 0 129.8.3 133.5 1.1zm-326.9 68.6 6.7.6V342h-63.2l.4-18.8.3-18.7 3.2-4.6c3.9-5.6 9.5-10.7 14-12.5 7-3 23.7-4.2 38.6-2.7zm497.4 82.6c6.1 3.3 6.3 4.3 6.3 38.6 0 17.8-.4 33.1-1 35.9-1.4 6.1-5.6 11.3-11.7 14.4-4.5 2.1-6.3 2.3-27.3 2.8-21.7.5-22.7.6-27 3-6.1 3.4-10.6 9.7-12 16.7-.8 3.4-1.1 11-.8 19.2.5 15.7 2 20.4 8.3 26 6.9 6.1 8.6 6.4 35.1 7l24.1.6 3.7 2.9c6 4.6 7.7 9.6 7.4 21.8l-.3 10.3-34.7.1c-32.2.1-35 .3-38.5 2.1-5.3 2.7-8 8.1-6.4 13.2.6 2 2.2 4.8 3.7 6.2l2.6 2.4 37.4.3 37.4.3v38c0 42-.2 43.2-6.2 46.9-2.9 1.8-5 2-18.8 2-14.2 0-15.9.2-20.5 2.4-2.8 1.3-6.3 3.8-7.8 5.6-5.5 6.4-6 8.5-6.7 25-.4 8.5-1.2 16.9-1.7 18.5-3.6 10.8-11.7 19.9-22.1 24.8l-6.7 3.2-83.2.5-83.1.5-2.6 2.4c-1.4 1.3-3 3.9-3.7 5.8-1.4 4.3 1.1 9.8 6 13l3.4 2.3h58.3c66.2 0 60.9-.8 55.5 8.5-3.5 6.2-9.8 12-16 14.9l-4.6 2.1H516c-133 0-142.9-.1-148.2-1.8-11.4-3.5-19.7-13.1-21.7-25.3-.5-3.2-.9-24.4-.8-46.9.2-44.5.2-43.9-5.5-49.2-6.1-5.7-6.6-5.8-55.3-6.3-49.4-.5-48.4-.4-55.7-6.9-6.7-5.8-7.2-8.4-7.6-38.2-.2-17.2 0-28 .7-30.6 1.4-5 7.4-10.7 12.8-12.2 2.1-.6 13-1.1 24.4-1.1 22.9 0 27.5-.8 34.7-6.1 2.5-1.8 5.4-5.3 7-8.3 2.6-4.9 2.7-5.9 3-22.3.2-10.3-.1-19.4-.8-22.7-2.2-10.7-10.5-19.2-21.6-22.1-4.5-1.2-12.2-1.5-34.9-1.5-28.2 0-29.1-.1-33-2.3-7.8-4.3-7.5-1.9-7.5-66.8 0-31.7.3-58.9.6-60.5.8-4.3 4.6-8.3 8.9-9.8 3.2-1.1 56.8-1.3 298.9-1.2 280.1.1 295.3.2 298.3 1.9z"/><path d="M327.2 407.6c-5.5 3.8-5.5 3.1-5.3 62.3.2 47.4.4 55 1.8 57.9 2.8 5.8 9.3 7.7 15.8 4.6 6.6-3.1 6.5-2.2 6.5-62.3 0-58.2-.1-58.9-5.1-62.5-3-2-10.8-2.1-13.7 0zm-95.7.4c-8.8 1.9-12.9 9.4-9 16.9 2.5 4.9 6.7 6.1 21.4 6.1 14.5 0 18.4-1 21.9-5.5 3-3.8 3-10.5 0-14-1.8-2.1-3.7-2.8-9.2-3.6-7.2-1-20-.9-25.1.1zm54.9.2c-4.5 1.2-7.6 5-8.1 10.2-.7 6.1 1.2 10.5 5.3 12.2 10.1 4.2 19.3-2.1 18.1-12.4-.8-7.5-7.7-12-15.3-10zm74 1.2c-6.9 3-8.2 13.6-2.4 18.8l3 2.8 42.8.2c83.7.5 85.5.5 88.5-1.5 1.5-1 3.5-3.4 4.4-5.3 1.5-3.1 1.6-3.9.3-7.7-1-2.6-2.7-5-4.9-6.4l-3.4-2.3h-62.6c-50.1.1-63.2.3-65.7 1.4zm160.5 1.4c-3.9 3.5-5 10.2-2.4 15.1 4.1 8 17.5 7.2 20.4-1.1 2-5.7 1.4-9.4-2.3-13.2-2.9-3.1-4-3.6-8-3.6-3.6 0-5.2.6-7.7 2.8zm35-.5c-6.3 4.2-6.5 15.3-.4 18.8 2.8 1.7 9.4 1.8 91.7 2 98.9.2 92.3.6 95.4-6.6 1.8-4.5 1.8-7.1-.2-10.5-3.8-6.3.2-6-95.8-6h-87.3l-3.4 2.3zm205.5-1.3c-1.2.4-3.1 2-4.2 3.5-8.2 10.5 3 24.1 14.8 18 4.2-2.2 6-5.3 6-10.5 0-2.5-.7-5.6-1.6-6.8-3.1-4.4-9.8-6.3-15-4.2zm-534.6 43.6c-5.4 2.9-7.3 10.1-4.1 15.5 3 5 6.5 5.9 22.5 5.9 16.1 0 20.8-.9 23.8-4.7 3.9-4.9 1.8-13.8-4-16.8-4.1-2.1-34.2-2.1-38.2.1zm259.3 30.5c-5.2.7-9.7 4.9-11.2 10.4-1.7 6.2-.7 27.6 1.4 30.8 3.6 5.6 5.7 6.2 23.7 6.5 18.9.4 21.7-.3 25.1-7 1.6-3.1 1.9-5.9 1.9-16.9 0-21.5-1.5-23.2-22.6-23.9-7.8-.3-16-.2-18.3.1zm19.3 19.5c1.1.4 1.6 1.9 1.6 4.4 0 4.2-1.1 5-6.5 5-5.2 0-6.5-.9-6.5-4.4 0-1.8.5-3.7 1.2-4.4 1.3-1.3 7.5-1.6 10.2-.6zm58-19.6c-5.2.8-8.9 3.2-10.9 7.1-1.3 2.5-1.6 5.8-1.3 18l.3 14.9 3.8 3.7 3.7 3.8 17.3.3c15.7.2 17.5.1 20.4-1.7 5.6-3.5 6.5-6 7.1-19 .2-6.5.2-13.5-.2-15.5-.9-4.9-5.9-10.4-9.9-11-5.8-.9-26.1-1.3-30.3-.6zm20.2 21.4c.3 1.3.4 3.5.2 4.7-.3 2.2-.9 2.4-6 2.7-5.5.3-5.8.2-6.4-2.3-.4-1.5-.2-3.7.5-5.1.9-2.1 1.7-2.4 6.1-2.4 4.4 0 5 .3 5.6 2.4zM408.3 485c-5.9 3.5-6.8 6.7-6.5 22.5.5 21.1 2.1 22.9 21.7 23.9 15.8.8 21.8-.2 25.8-4.3l3.2-3.1v-16.4c0-16.1 0-16.5-2.5-19.1-4.3-4.7-7.6-5.5-23.7-5.5-12.9 0-15.2.3-18 2zm24.8 19.4c.7 1.4.9 3.6.5 5-.6 2.4-1.1 2.6-6.1 2.6H422v-4.3c0-2.4.3-4.7.7-5 .3-.4 2.6-.7 5-.7 3.6 0 4.5.4 5.4 2.4zM635 483.8c-7.6 3.4-9 6.9-9 23 0 15.2 1.1 19.1 6.2 22.2 2.9 1.8 5 2 19.3 2 14.1 0 16.4-.2 19.2-2 5.7-3.4 6.5-6.3 6.1-23-.3-14.2-.4-15-2.8-17.5-4.7-5-6.8-5.5-22.7-5.4-8.1 0-15.5.3-16.3.7zm20.9 19.6c.7.8 1.1 3 .9 4.8-.3 3.2-.4 3.3-5.6 3.6-6 .3-6.8-.6-5.8-6.3.7-3.4.9-3.5 5-3.5 2.6 0 4.8.6 5.5 1.4zm-324.6 62c-4.3 2-7.3 7-7.3 12.4 0 8.9 9.9 14.7 18 10.5 4.2-2.2 6-5.4 6-11.1 0-9.6-8.3-15.5-16.7-11.8zm78 2.5c-2.6 1.2-4.8 3.2-5.9 5.3-2.1 3.9-3 17.3-1.9 27.4.6 5.6 1.2 7.2 4 10.3l3.3 3.6 17.1.3c15.9.3 17.4.2 20.5-1.7 5.6-3.5 6.6-6.9 6.6-23.4 0-14.3 0-14.6-2.7-17.8-4.3-5.1-7.6-5.9-23-5.9-11.4 0-14.5.4-18 1.9zM433 591v5.1l-5.7-.3c-5.8-.3-5.8-.3-6.1-3.6-.5-5.5.1-6.2 6.3-6.2h5.5v5zm49.5-23.6c-1.6.7-4.1 2.6-5.5 4.1-2.4 2.6-2.5 3-2.5 18.4 0 17.4.6 19.3 6.8 23.1 2.8 1.8 5.1 2 19.7 2s16.9-.2 19.7-2c5.5-3.3 6.3-6.2 6.3-22.3 0-13.3-.2-14.7-2.2-17.7-4.2-6.1-7.4-7-24.3-7-10.3.1-15.9.5-18 1.4zm24 20.6c.4 1.1.4 3.4 0 5-.7 3.3-4.1 4.5-9 3.2-2.5-.7-3.1-1.4-3.3-4.1-.5-5.4.2-6.1 6.2-6.1 4.6 0 5.6.3 6.1 2zm51.7-19.9c-6.8 3.4-7.7 6.1-7.7 22.4 0 12.3.3 14.4 2 17.5 3.8 6.3 6.3 7.1 24.4 7.1 17.7.1 20.1-.5 24.5-6.4 1.9-2.6 2.1-4.2 2.1-17.7 0-13.4-.2-15.1-2.1-17.6-4.7-6.4-6.1-6.8-23.2-7.2-14.6-.3-16-.2-20 1.9zM583 591v5h-11v-10h11v5zm51-23.2c-1.9.9-4.5 3.2-5.7 5.1-2.1 3.1-2.3 4.5-2.3 18.1v14.7l3 4.1c1.6 2.3 4.2 4.5 5.7 4.9 1.6.5 9.4.7 17.4.7 23.3-.2 24.9-1.8 24.9-25.1 0-15 0-15.2-2.7-18.4-4.3-5.1-7.6-5.9-23-5.9-11.1 0-14.5.3-17.3 1.8zm22.8 22.9-.3 4.8-5.2.3c-4.5.3-5.2 0-5.8-1.8-.4-1.1-.4-3.4 0-5 .6-2.9.9-3 6.1-3h5.5l-.3 4.7zm71 33.9c-4.3 2.3-6.2 6.9-6.1 14.6.2 7.7 1.2 10.2 5.3 12.3 6.3 3.3 14.6 1.1 17.7-4.8 2.2-4.2 2.3-14.6.1-18-3.4-5-11.7-7.1-17-4.1zm-317.3 22.8c-8 3-10 8.6-9.2 25.9.7 12.9 1.8 16.2 7 20.1 2.5 1.9 4.5 2.1 18.2 2.4 13 .3 15.9.1 19-1.4 6.6-3.1 7.5-5.8 7.5-22.8 0-16.3-.9-19.3-6.8-23.2-3.8-2.5-29.7-3.2-35.7-1zm23.3 23.3c.4 5.1-1.9 6.8-7.9 5.8-3.8-.7-3.9-.8-3.9-4.9 0-2.4.3-4.6.7-5 .4-.4 3-.6 5.8-.4l5 .3.3 4.2zm50.6-23.7c-4.7 1.5-9.1 7.1-9.9 12.4-.4 2.5-.6 9.6-.4 15.9.4 12.5 1.5 15.3 7.2 18.7 2.8 1.8 5.1 2 18.7 2 17.1 0 20.4-.9 24.4-6.3 1.9-2.5 2.1-4.6 2.4-17.5.6-23.1-1-24.7-24.3-25.6-8.7-.3-16.3-.1-18.1.4zm21.4 20.2c.7.7 1.2 2.9 1.2 5v3.8h-13v-4.3c0-2.4.3-4.7.7-5 1.1-1.2 9.8-.8 11.1.5zm63-20.2c-9.7.5-9.8.5-13.5 4.3l-3.8 3.7-.3 14.8c-.3 16.7.6 19.8 6.7 23.9 3.2 2.2 4.4 2.3 20 2.3 16.2 0 16.7-.1 20.4-2.6 2.1-1.4 4.2-3.7 4.8-5 .5-1.4.9-9.1.9-17.2 0-12.6-.3-15.1-1.9-17.8-3.6-5.9-11.8-7.5-33.3-6.4zm15.8 22.6c1.1 4.2-1 7.4-4.8 7.4-6.7 0-7.8-.8-7.8-5.6V667h6c5.6 0 6 .2 6.6 2.6zm53.1-22.6c-2.5.4-5.2 2.1-7.5 4.4l-3.7 3.6-.3 14.8c-.3 17.4.6 20.2 7.9 24 4.1 2.1 5.4 2.3 19.1 2 13.1-.3 15-.5 17.5-2.4 5.4-4.1 6.1-6.6 6.5-22.4.3-14 .2-14.7-2.1-17.9-4-5.5-8.8-7.1-22.1-7-6.3.1-13.2.5-15.3.9zm19.7 21.2c.3 1.3.6 3.5.6 4.9 0 2.4-.5 2.7-4.5 3.3-6.1 1-8.9 0-8.1-2.7.3-1.2.6-3.4.6-5 0-2.6.2-2.7 5.4-2.7 4.7 0 5.4.3 6 2.2z"/></svg>