<?xml version="1.0" encoding="UTF-8"?>
<svg xmlns="http://www.w3.org/2000/svg" xmlns:xlink="http://www.w3.org/1999/xlink" width="524px" height="524px" viewBox="0 0 524 524" version="1.1">
<g id="surface1">
<path style=" stroke:none;fill-rule:nonzero;fill:rgb(0%,0%,0%);fill-opacity:1;" d="M 189.847656 99.425781 C 179.972656 102.394531 172.808594 108.28125 168.664062 116.773438 C 166.359375 121.480469 165.644531 124.195312 165.03125 130.539062 C 164.722656 133.355469 164.621094 133.457031 163.085938 133.761719 C 162.164062 133.917969 157.867188 134.019531 153.515625 134.019531 C 144.101562 133.917969 140.925781 134.480469 135.246094 137.191406 C 127.164062 141.082031 121.429688 148.65625 120.253906 157.097656 C 119.945312 159.195312 119.742188 164.058594 119.792969 167.84375 L 119.84375 174.75 L 113.753906 175.058594 C 108.28125 175.316406 107.308594 175.519531 104.132812 177.003906 C 99.988281 178.898438 97.378906 181.507812 95.382812 185.601562 L 93.898438 188.570312 L 93.898438 257.652344 L 95.382812 260.667969 C 98.148438 266.351562 102.957031 269.777344 109.355469 270.699219 C 111.246094 270.953125 119.332031 271.210938 127.265625 271.210938 C 141.59375 271.210938 141.695312 271.210938 142.460938 272.335938 C 143.539062 273.820312 143.691406 288.300781 142.667969 288.96875 C 142.308594 289.171875 136.371094 289.480469 129.464844 289.632812 L 116.925781 289.890625 L 113.601562 291.476562 C 109.40625 293.46875 105.515625 297.207031 103.570312 301.148438 L 102.085938 304.21875 L 102.085938 342.085938 L 103.828125 345.5625 C 106.691406 351.398438 112.015625 355.796875 119.382812 358.355469 C 120.40625 358.714844 129.105469 359.023438 142.769531 359.175781 L 164.515625 359.484375 L 164.773438 380.976562 C 165.027344 401.546875 165.082031 402.570312 166.207031 405.484375 C 169.480469 414.289062 176.082031 420.835938 184.628906 423.804688 L 188.054688 424.980469 L 338.5 424.980469 L 341.929688 423.804688 C 346.125 422.320312 350.476562 419.558594 353.800781 416.230469 C 358.050781 412.035156 359.789062 408.710938 362.09375 400.777344 C 362.195312 400.367188 363.421875 400.164062 365.828125 400.164062 C 374.835938 400.164062 382.917969 397.042969 389.519531 390.953125 C 397.554688 383.53125 401.136719 374.679688 401.1875 362.144531 L 401.1875 359.738281 L 406.457031 359.738281 C 413.007812 359.738281 418.023438 359.023438 421.09375 357.640625 C 424.367188 356.207031 427.949219 352.523438 429.691406 348.789062 L 431.121094 345.664062 L 431.277344 312.097656 C 431.429688 279.039062 431.429688 278.425781 430.355469 275.253906 C 428.359375 269.421875 424.417969 265.070312 418.484375 262.152344 C 413.980469 259.953125 410.601562 259.441406 400.367188 259.441406 C 393.253906 259.441406 391.464844 259.289062 390.953125 258.671875 C 390.289062 257.855469 390.390625 248.03125 391.105469 247.3125 C 391.363281 247.109375 396.429688 246.800781 402.363281 246.597656 C 411.933594 246.390625 413.570312 246.1875 416.027344 245.214844 C 421.964844 242.863281 428.410156 235.953125 430.097656 230.121094 C 430.664062 228.023438 430.867188 223.367188 430.96875 208.269531 C 431.121094 190.769531 431.019531 188.824219 430.203125 186.367188 C 428.71875 182.171875 425.851562 178.949219 421.808594 176.953125 L 418.328125 175.265625 L 409.015625 175.109375 L 399.652344 174.90625 L 399.652344 165.898438 C 399.652344 160.066406 399.398438 155.613281 398.9375 153.464844 C 396.785156 143.332031 389.164062 136.167969 378.671875 134.273438 C 376.472656 133.867188 370.996094 133.609375 365.828125 133.558594 L 356.820312 133.558594 L 356.515625 128.03125 C 356.054688 119.28125 353.800781 114.164062 347.457031 107.972656 C 342.953125 103.519531 338.195312 100.757812 332.308594 99.273438 C 328.472656 98.300781 326.578125 98.25 261.027344 98.300781 L 193.6875 98.300781 Z M 328.625 110.582031 C 334.5625 111.8125 340.292969 116.261719 342.851562 121.535156 C 343.617188 123.171875 344.027344 125.21875 344.234375 128.699219 L 344.539062 133.558594 L 274.484375 133.558594 C 196.960938 133.558594 200.851562 133.40625 194.710938 136.882812 C 190.5625 139.1875 186.574219 143.28125 184.730469 147.066406 C 182.886719 150.753906 181.457031 157.148438 181.96875 159.347656 C 182.835938 163.289062 186.0625 165.335938 189.59375 164.160156 C 192.304688 163.238281 193.328125 161.550781 193.890625 157.25 C 194.554688 151.828125 196.859375 148.808594 202.027344 146.453125 C 203.765625 145.636719 210.214844 145.582031 289.121094 145.480469 C 382.457031 145.328125 378.007812 145.175781 382.507812 148.296875 C 383.636719 149.0625 385.121094 150.753906 385.835938 151.980469 C 387.0625 154.179688 387.117188 154.691406 387.269531 164.621094 L 387.421875 175.007812 L 177.003906 175.007812 L 177.15625 150.292969 L 177.3125 125.574219 L 179.253906 121.636719 C 181.914062 116.261719 185.292969 113.449219 192.148438 110.992188 C 194.554688 110.121094 198.34375 110.070312 260.3125 110.019531 C 306.417969 110.019531 326.734375 110.171875 328.625 110.582031 Z M 161.34375 145.6875 L 164.773438 145.992188 L 164.773438 175.007812 L 132.433594 175.007812 L 132.636719 165.386719 L 132.792969 155.820312 L 134.429688 153.464844 C 136.425781 150.597656 139.289062 147.988281 141.59375 147.066406 C 145.175781 145.53125 153.71875 144.917969 161.34375 145.6875 Z M 415.875 187.953125 C 418.996094 189.644531 419.097656 190.15625 419.097656 207.707031 C 419.097656 216.816406 418.894531 224.644531 418.585938 226.078125 C 417.871094 229.199219 415.71875 231.859375 412.597656 233.445312 C 410.296875 234.519531 409.375 234.625 398.628906 234.878906 C 387.523438 235.136719 387.011719 235.1875 384.8125 236.414062 C 381.691406 238.152344 379.386719 241.378906 378.671875 244.960938 C 378.261719 246.699219 378.109375 250.589844 378.261719 254.785156 C 378.519531 262.820312 379.285156 265.222656 382.507812 268.089844 C 386.039062 271.210938 386.910156 271.363281 400.472656 271.671875 L 412.804688 271.980469 L 414.695312 273.460938 C 417.765625 275.816406 418.636719 278.375 418.484375 284.617188 L 418.332031 289.890625 L 400.574219 289.941406 C 384.097656 289.992188 382.664062 290.09375 380.871094 291.015625 C 378.160156 292.394531 376.777344 295.160156 377.597656 297.769531 C 377.90625 298.792969 378.722656 300.226562 379.492188 300.941406 L 380.820312 302.171875 L 399.960938 302.324219 L 419.097656 302.476562 L 419.097656 321.921875 C 419.097656 343.414062 418.996094 344.027344 415.925781 345.921875 C 414.441406 346.84375 413.367188 346.945312 406.304688 346.945312 C 399.039062 346.945312 398.167969 347.046875 395.816406 348.171875 C 394.382812 348.839844 392.589844 350.117188 391.824219 351.039062 C 389.007812 354.3125 388.753906 355.390625 388.394531 363.832031 C 388.191406 368.179688 387.78125 372.480469 387.523438 373.296875 C 385.683594 378.824219 381.539062 383.480469 376.214844 385.988281 L 372.789062 387.625 L 330.210938 387.882812 L 287.6875 388.140625 L 286.359375 389.367188 C 285.640625 390.03125 284.824219 391.363281 284.464844 392.335938 C 283.746094 394.535156 285.027344 397.347656 287.535156 398.988281 L 289.273438 400.164062 L 319.109375 400.164062 C 352.984375 400.164062 350.269531 399.753906 347.507812 404.511719 C 345.71875 407.6875 342.492188 410.652344 339.320312 412.136719 L 336.964844 413.210938 L 264.046875 413.210938 C 195.988281 413.210938 190.921875 413.160156 188.210938 412.292969 C 182.375 410.5 178.128906 405.589844 177.105469 399.34375 C 176.851562 397.707031 176.644531 386.859375 176.695312 375.34375 C 176.796875 352.574219 176.796875 352.882812 173.882812 350.167969 C 170.761719 347.253906 170.503906 347.203125 145.585938 346.945312 C 120.304688 346.6875 120.816406 346.742188 117.082031 343.414062 C 113.652344 340.445312 113.398438 339.117188 113.191406 323.867188 C 113.089844 315.066406 113.191406 309.539062 113.550781 308.207031 C 114.265625 305.648438 117.335938 302.734375 120.101562 301.964844 C 121.175781 301.65625 126.753906 301.402344 132.585938 301.402344 C 144.304688 301.402344 146.660156 300.992188 150.34375 298.28125 C 151.621094 297.359375 153.105469 295.570312 153.925781 294.035156 C 155.253906 291.527344 155.304688 291.015625 155.460938 282.621094 C 155.5625 277.351562 155.410156 272.695312 155.050781 271.007812 C 153.925781 265.53125 149.679688 261.179688 143.996094 259.695312 C 141.695312 259.082031 137.753906 258.929688 126.136719 258.929688 C 111.707031 258.929688 111.246094 258.878906 109.25 257.753906 C 105.261719 255.550781 105.414062 256.78125 105.414062 223.570312 C 105.414062 207.347656 105.566406 193.429688 105.722656 192.609375 C 106.128906 190.410156 108.074219 188.363281 110.273438 187.597656 C 111.914062 187.03125 139.339844 186.929688 263.226562 186.980469 C 406.5625 187.03125 414.339844 187.085938 415.875 187.953125 Z M 415.875 187.953125 "/>
<path style=" stroke:none;fill-rule:nonzero;fill:rgb(0%,0%,0%);fill-opacity:1;" d="M 167.433594 208.578125 C 164.621094 210.519531 164.621094 210.164062 164.722656 240.457031 C 164.824219 264.710938 164.925781 268.601562 165.644531 270.085938 C 167.078125 273.054688 170.402344 274.027344 173.726562 272.4375 C 177.105469 270.851562 177.054688 271.3125 177.054688 240.558594 C 177.054688 210.777344 177.003906 210.417969 174.445312 208.578125 C 172.910156 207.554688 168.917969 207.503906 167.433594 208.578125 Z M 118.460938 208.78125 C 113.960938 209.753906 111.863281 213.589844 113.859375 217.429688 C 115.136719 219.9375 117.285156 220.550781 124.808594 220.550781 C 132.226562 220.550781 134.222656 220.039062 136.015625 217.734375 C 137.550781 215.792969 137.550781 212.363281 136.015625 210.570312 C 135.09375 209.496094 134.121094 209.140625 131.308594 208.730469 C 127.621094 208.21875 121.074219 208.269531 118.464844 208.78125 Z M 146.554688 208.882812 C 144.253906 209.496094 142.667969 211.441406 142.410156 214.101562 C 142.054688 217.226562 143.023438 219.476562 145.125 220.347656 C 150.292969 222.496094 155 219.269531 154.386719 214 C 153.976562 210.164062 150.445312 207.859375 146.554688 208.882812 Z M 184.421875 209.496094 C 180.890625 211.03125 180.226562 216.457031 183.195312 219.117188 L 184.730469 220.550781 L 206.632812 220.652344 C 249.460938 220.910156 250.382812 220.910156 251.917969 219.886719 C 252.6875 219.375 253.710938 218.144531 254.171875 217.171875 C 254.9375 215.585938 254.988281 215.179688 254.324219 213.234375 C 253.8125 211.902344 252.941406 210.675781 251.816406 209.957031 L 250.078125 208.78125 L 218.042969 208.78125 C 192.40625 208.832031 185.703125 208.933594 184.421875 209.496094 Z M 266.554688 210.214844 C 264.558594 212.003906 263.996094 215.433594 265.328125 217.941406 C 267.425781 222.035156 274.28125 221.625 275.765625 217.378906 C 276.789062 214.460938 276.480469 212.566406 274.589844 210.625 C 273.105469 209.035156 272.542969 208.78125 270.496094 208.78125 C 268.652344 208.78125 267.832031 209.089844 266.554688 210.214844 Z M 284.464844 209.957031 C 281.242188 212.105469 281.136719 217.789062 284.257812 219.578125 C 285.691406 220.449219 289.070312 220.5 331.183594 220.601562 C 381.792969 220.703125 378.414062 220.910156 380.003906 217.222656 C 380.921875 214.921875 380.921875 213.589844 379.898438 211.851562 C 377.957031 208.628906 380.003906 208.78125 330.878906 208.78125 L 286.203125 208.78125 Z M 389.621094 209.292969 C 389.007812 209.496094 388.035156 210.316406 387.472656 211.082031 C 383.277344 216.457031 389.007812 223.417969 395.046875 220.292969 C 397.195312 219.167969 398.117188 217.582031 398.117188 214.921875 C 398.117188 213.640625 397.757812 212.054688 397.296875 211.441406 C 395.710938 209.191406 392.285156 208.21875 389.621094 209.292969 Z M 116.058594 231.605469 C 113.292969 233.085938 112.320312 236.773438 113.960938 239.535156 C 115.496094 242.09375 117.285156 242.554688 125.472656 242.554688 C 133.710938 242.554688 136.117188 242.09375 137.652344 240.148438 C 139.648438 237.640625 138.574219 233.085938 135.605469 231.550781 C 133.507812 230.476562 118.105469 230.476562 116.058594 231.605469 Z M 248.746094 247.210938 C 246.085938 247.570312 243.78125 249.71875 243.015625 252.53125 C 242.144531 255.707031 242.65625 266.65625 243.730469 268.292969 C 245.574219 271.160156 246.648438 271.46875 255.859375 271.621094 C 265.53125 271.824219 266.964844 271.46875 268.703125 268.039062 C 269.523438 266.453125 269.675781 265.019531 269.675781 259.390625 C 269.675781 248.386719 268.90625 247.519531 258.109375 247.160156 C 254.121094 247.007812 249.921875 247.058594 248.746094 247.210938 Z M 258.621094 257.191406 C 259.1875 257.394531 259.441406 258.160156 259.441406 259.441406 C 259.441406 261.589844 258.878906 262 256.117188 262 C 253.453125 262 252.789062 261.539062 252.789062 259.75 C 252.789062 258.828125 253.046875 257.855469 253.402344 257.496094 C 254.070312 256.832031 257.242188 256.679688 258.621094 257.191406 Z M 288.300781 247.160156 C 285.640625 247.570312 283.75 248.796875 282.726562 250.792969 C 282.058594 252.074219 281.90625 253.761719 282.058594 260.003906 L 282.210938 267.628906 L 284.15625 269.523438 L 286.050781 271.46875 L 294.902344 271.621094 C 302.9375 271.722656 303.859375 271.671875 305.34375 270.75 C 308.207031 268.960938 308.667969 267.679688 308.976562 261.027344 C 309.078125 257.703125 309.078125 254.121094 308.875 253.097656 C 308.414062 250.589844 305.855469 247.773438 303.808594 247.46875 C 300.839844 247.007812 290.453125 246.800781 288.300781 247.160156 Z M 298.640625 258.109375 C 298.792969 258.777344 298.84375 259.902344 298.742188 260.515625 C 298.589844 261.640625 298.28125 261.742188 295.671875 261.898438 C 292.855469 262.050781 292.703125 262 292.394531 260.71875 C 292.191406 259.953125 292.292969 258.828125 292.652344 258.109375 C 293.113281 257.035156 293.523438 256.882812 295.773438 256.882812 C 298.023438 256.882812 298.332031 257.035156 298.640625 258.109375 Z M 208.933594 248.183594 C 205.914062 249.976562 205.453125 251.613281 205.609375 259.695312 C 205.863281 270.496094 206.683594 271.414062 216.710938 271.925781 C 224.796875 272.335938 227.867188 271.824219 229.914062 269.726562 L 231.554688 268.140625 L 231.554688 259.75 C 231.554688 251.507812 231.554688 251.304688 230.273438 249.976562 C 228.074219 247.570312 226.382812 247.160156 218.144531 247.160156 C 211.542969 247.160156 210.367188 247.3125 208.933594 248.183594 Z M 221.625 258.109375 C 221.984375 258.828125 222.085938 259.953125 221.882812 260.667969 C 221.574219 261.898438 221.320312 262 218.757812 262 L 215.945312 262 L 215.945312 259.800781 C 215.945312 258.570312 216.097656 257.394531 216.304688 257.242188 C 216.457031 257.035156 217.632812 256.882812 218.863281 256.882812 C 220.703125 256.882812 221.164062 257.085938 221.625 258.109375 Z M 324.941406 247.570312 C 321.050781 249.308594 320.335938 251.101562 320.335938 259.339844 C 320.335938 267.117188 320.898438 269.113281 323.507812 270.699219 C 324.992188 271.621094 326.066406 271.722656 333.382812 271.722656 C 340.601562 271.722656 341.777344 271.621094 343.210938 270.699219 C 346.125 268.960938 346.535156 267.476562 346.332031 258.929688 C 346.179688 251.664062 346.125 251.253906 344.898438 249.976562 C 342.492188 247.414062 341.417969 247.160156 333.28125 247.210938 C 329.136719 247.210938 325.351562 247.363281 324.941406 247.570312 Z M 335.636719 257.597656 C 335.996094 258.007812 336.199219 259.132812 336.097656 260.054688 C 335.945312 261.691406 335.890625 261.746094 333.230469 261.898438 C 330.160156 262.050781 329.75 261.589844 330.261719 258.675781 C 330.621094 256.933594 330.722656 256.882812 332.820312 256.882812 C 334.152344 256.882812 335.277344 257.191406 335.636719 257.597656 Z M 169.53125 289.324219 C 167.332031 290.347656 165.796875 292.90625 165.796875 295.671875 C 165.796875 300.226562 170.863281 303.195312 175.007812 301.042969 C 177.15625 299.917969 178.078125 298.28125 178.078125 295.363281 C 178.078125 290.453125 173.832031 287.433594 169.53125 289.324219 Z M 209.445312 290.605469 C 208.117188 291.21875 206.988281 292.242188 206.425781 293.316406 C 205.351562 295.3125 204.890625 302.171875 205.453125 307.339844 C 205.761719 310.203125 206.070312 311.023438 207.5 312.609375 L 209.191406 314.453125 L 217.941406 314.605469 C 226.078125 314.757812 226.84375 314.707031 228.429688 313.734375 C 231.296875 311.945312 231.808594 310.203125 231.808594 301.761719 C 231.808594 294.441406 231.808594 294.289062 230.425781 292.652344 C 228.226562 290.042969 226.539062 289.632812 218.65625 289.632812 C 212.824219 289.632812 211.238281 289.835938 209.445312 290.605469 Z M 221.574219 302.425781 L 221.574219 305.035156 L 218.65625 304.882812 C 215.6875 304.730469 215.6875 304.730469 215.535156 303.039062 C 215.28125 300.226562 215.585938 299.867188 218.757812 299.867188 L 221.574219 299.867188 Z M 246.90625 290.347656 C 246.085938 290.707031 244.804688 291.679688 244.089844 292.445312 C 242.863281 293.777344 242.8125 293.984375 242.8125 301.863281 C 242.8125 310.765625 243.117188 311.738281 246.289062 313.683594 C 247.722656 314.605469 248.898438 314.707031 256.371094 314.707031 C 263.84375 314.707031 265.019531 314.605469 266.453125 313.683594 C 269.265625 311.996094 269.675781 310.511719 269.675781 302.273438 C 269.675781 295.464844 269.574219 294.75 268.550781 293.214844 C 266.402344 290.09375 264.761719 289.632812 256.113281 289.632812 C 250.84375 289.683594 247.980469 289.890625 246.902344 290.347656 Z M 259.1875 300.890625 C 259.390625 301.453125 259.390625 302.628906 259.1875 303.449219 C 258.828125 305.136719 257.085938 305.75 254.578125 305.085938 C 253.300781 304.726562 252.992188 304.371094 252.890625 302.988281 C 252.636719 300.226562 252.992188 299.867188 256.0625 299.867188 C 258.417969 299.867188 258.929688 300.019531 259.1875 300.890625 Z M 285.640625 290.707031 C 282.160156 292.445312 281.703125 293.828125 281.703125 302.171875 C 281.703125 308.464844 281.855469 309.539062 282.726562 311.125 C 284.667969 314.347656 285.949219 314.757812 295.210938 314.757812 C 304.269531 314.808594 305.496094 314.503906 307.746094 311.484375 C 308.71875 310.152344 308.820312 309.335938 308.820312 302.425781 C 308.820312 295.570312 308.71875 294.699219 307.746094 293.417969 C 305.34375 290.144531 304.625 289.941406 295.875 289.734375 C 288.40625 289.582031 287.6875 289.632812 285.640625 290.707031 Z M 298.332031 302.425781 L 298.332031 304.984375 L 292.703125 304.984375 L 292.703125 299.867188 L 298.332031 299.867188 Z M 324.429688 290.554688 C 323.457031 291.015625 322.125 292.191406 321.511719 293.164062 C 320.4375 294.75 320.335938 295.464844 320.335938 302.425781 L 320.335938 309.949219 L 321.871094 312.046875 C 322.691406 313.222656 324.019531 314.347656 324.789062 314.554688 C 325.605469 314.808594 329.597656 314.910156 333.691406 314.910156 C 345.613281 314.808594 346.433594 313.992188 346.433594 302.066406 C 346.433594 294.390625 346.433594 294.289062 345.050781 292.652344 C 342.851562 290.042969 341.164062 289.632812 333.28125 289.632812 C 327.601562 289.632812 325.863281 289.785156 324.429688 290.554688 Z M 336.097656 302.273438 L 335.945312 304.726562 L 333.28125 304.882812 C 330.980469 305.035156 330.621094 304.882812 330.3125 303.960938 C 330.109375 303.398438 330.109375 302.222656 330.3125 301.402344 C 330.621094 299.917969 330.773438 299.867188 333.4375 299.867188 L 336.25 299.867188 Z M 372.429688 319.621094 C 370.226562 320.796875 369.257812 323.148438 369.308594 327.089844 C 369.410156 331.03125 369.921875 332.308594 372.019531 333.382812 C 375.242188 335.074219 379.492188 333.949219 381.078125 330.929688 C 382.203125 328.777344 382.253906 323.457031 381.128906 321.71875 C 379.386719 319.160156 375.140625 318.085938 372.429688 319.621094 Z M 210.058594 331.285156 C 205.964844 332.820312 204.941406 335.6875 205.351562 344.539062 C 205.710938 351.140625 206.273438 352.828125 208.933594 354.824219 C 210.214844 355.796875 211.238281 355.898438 218.246094 356.054688 C 224.898438 356.207031 226.382812 356.105469 227.96875 355.335938 C 231.347656 353.75 231.808594 352.371094 231.808594 343.671875 C 231.808594 335.328125 231.347656 333.792969 228.328125 331.796875 C 226.382812 330.519531 213.128906 330.160156 210.058594 331.285156 Z M 221.984375 343.210938 C 222.1875 345.820312 221.011719 346.6875 217.941406 346.175781 C 215.996094 345.820312 215.945312 345.769531 215.945312 343.671875 C 215.945312 342.441406 216.097656 341.316406 216.304688 341.113281 C 216.507812 340.90625 217.839844 340.804688 219.273438 340.90625 L 221.828125 341.058594 Z M 247.875 331.082031 C 245.472656 331.847656 243.21875 334.714844 242.8125 337.425781 C 242.605469 338.707031 242.503906 342.339844 242.605469 345.5625 C 242.8125 351.960938 243.375 353.394531 246.289062 355.132812 C 247.722656 356.054688 248.898438 356.15625 255.859375 356.15625 C 264.609375 356.15625 266.296875 355.695312 268.34375 352.933594 C 269.316406 351.652344 269.421875 350.578125 269.574219 343.976562 C 269.878906 332.15625 269.0625 331.335938 257.136719 330.878906 C 252.6875 330.722656 248.796875 330.824219 247.875 331.082031 Z M 258.828125 341.417969 C 259.183594 341.777344 259.441406 342.902344 259.441406 343.976562 L 259.441406 345.921875 L 252.789062 345.921875 L 252.789062 343.722656 C 252.789062 342.492188 252.941406 341.316406 253.148438 341.164062 C 253.710938 340.546875 258.160156 340.753906 258.828125 341.417969 Z M 291.066406 331.082031 C 286.101562 331.335938 286.050781 331.335938 284.15625 333.28125 L 282.210938 335.175781 L 282.058594 342.75 C 281.90625 351.292969 282.367188 352.882812 285.488281 354.980469 C 287.125 356.105469 287.738281 356.15625 295.722656 356.15625 C 304.011719 356.15625 304.269531 356.105469 306.160156 354.824219 C 307.234375 354.109375 308.3125 352.933594 308.617188 352.265625 C 308.875 351.550781 309.078125 347.609375 309.078125 343.464844 C 309.078125 337.019531 308.925781 335.738281 308.105469 334.355469 C 306.265625 331.335938 302.066406 330.519531 291.066406 331.082031 Z M 299.152344 342.648438 C 299.714844 344.796875 298.640625 346.433594 296.695312 346.433594 C 293.265625 346.433594 292.703125 346.023438 292.703125 343.566406 L 292.703125 341.316406 L 295.773438 341.316406 C 298.640625 341.316406 298.84375 341.417969 299.152344 342.648438 Z M 326.324219 331.082031 C 325.042969 331.285156 323.660156 332.15625 322.484375 333.332031 L 320.589844 335.175781 L 320.4375 342.75 C 320.285156 351.652344 320.746094 353.085938 324.480469 355.03125 C 326.578125 356.105469 327.242188 356.207031 334.253906 356.054688 C 340.957031 355.898438 341.929688 355.796875 343.210938 354.824219 C 345.972656 352.726562 346.332031 351.449219 346.535156 343.363281 C 346.6875 336.199219 346.636719 335.839844 345.460938 334.203125 C 343.414062 331.390625 340.957031 330.570312 334.152344 330.621094 C 330.929688 330.671875 327.398438 330.878906 326.324219 331.082031 Z M 336.402344 341.929688 C 336.558594 342.59375 336.710938 343.722656 336.710938 344.4375 C 336.710938 345.664062 336.453125 345.820312 334.40625 346.125 C 331.285156 346.636719 329.855469 346.125 330.261719 344.746094 C 330.417969 344.128906 330.570312 343.003906 330.570312 342.1875 C 330.570312 340.855469 330.671875 340.804688 333.332031 340.804688 C 335.738281 340.804688 336.097656 340.957031 336.402344 341.929688 Z M 336.402344 341.929688 "/>
</g>
</svg>
